<svg xmlns="http://www.w3.org/2000/svg" xmlns:xlink="http://www.w3.org/1999/xlink" viewBox="0 0 1712.74 1712.74"><defs><style>.a{fill:#e35b6b;}.b{fill:url(#a);}.c{fill:url(#b);}.d,.e{fill:#fff;}.d{opacity:0.08;}</style><linearGradient id="a" x1="91.66" y1="91.66" x2="1663.57" y2="1663.57" gradientUnits="userSpaceOnUse"><stop offset="0.02" stop-color="#ff8897"/><stop offset="0.96" stop-color="#a01c3f"/></linearGradient><linearGradient id="b" x1="455.14" y1="1382.64" x2="455.14" y2="1382.64" xlink:href="#a"/></defs><rect class="a" width="1712.74" height="1712.74" rx="400"/><rect class="b" width="1712.74" height="1712.74" rx="400"/><path class="c" d="M455.14,1382.64" transform="translate(-143.63 -143.63)"/><rect class="d" x="79.53" y="79.53" width="1553.67" height="1553.67" rx="320.18"/><path class="e" d="M972.29,1294.61a49.49,49.49,0,0,1,3.23,17.7l-.78,249.33c-141.93-122.59-315.16-166-515.69-131.61a20,20,0,0,1-23.1-22.78L491.79,1048a30,30,0,0,1,30.28-25.39C760.6,1028.36,906.7,1122.83,972.29,1294.61Zm591.76,112.64L1508.21,1048a30,30,0,0,0-30.28-25.39c-238.53,5.73-384.63,100.2-450.22,272a49.49,49.49,0,0,0-3.23,17.7l.78,249.33c141.93-122.59,315.16-166,515.69-131.61A20,20,0,0,0,1564.05,1407.25Zm-514.25-287.5c47.48-7,115-65.22,152.87-105.91,93.62-101.4,55.51-228.56-16.18-315.66,5.74,54.27-20.08,128.35-53.21,154.44-15.93-5.56-52.32-27.65-41.74-81.39C1126.1,588.1,1065.17,480.34,935,438.36c29.69,122.89,4.76,254.31-66.27,364.69-20.08-14.6-52.17-70.17-34.17-139-140.88,172.57-136,337.89,117.13,455.74-46.05-136.17,11-207.13,49.78-271.83C1036.75,913.66,1090.49,993,1049.8,1119.75Z" transform="translate(-143.63 -143.63)"/></svg>